<mxfile host="app.diagrams.net" modified="2024-02-05T07:15:07.558Z" agent="Mozilla/5.0 (Windows NT 10.0; Win64; x64) AppleWebKit/537.36 (KHTML, like Gecko) Chrome/121.0.0.0 Safari/537.36" etag="ZJN4-rOWzKdY2Qw5oX_E" version="23.1.1" type="github">
  <diagram name="Страница — 1" id="le-KbMW1RqIIl2LPLVC2">
    <mxGraphModel dx="2876" dy="1129" grid="1" gridSize="10" guides="1" tooltips="1" connect="1" arrows="1" fold="1" page="1" pageScale="1" pageWidth="827" pageHeight="1169" math="0" shadow="0">
      <root>
        <mxCell id="0" />
        <mxCell id="1" parent="0" />
        <mxCell id="fIGAu9aoCWB4bhaub2GI-1" value="" style="shape=hexagon;perimeter=hexagonPerimeter2;whiteSpace=wrap;html=1;fixedSize=1;size=100;fontSize=16;" vertex="1" parent="1">
          <mxGeometry x="170" y="110" width="520" height="420" as="geometry" />
        </mxCell>
        <mxCell id="fIGAu9aoCWB4bhaub2GI-2" value="Управление аутентификацией и авторизацией" style="rounded=0;whiteSpace=wrap;html=1;fontSize=16;" vertex="1" parent="1">
          <mxGeometry x="270" y="300" width="140" height="50" as="geometry" />
        </mxCell>
        <mxCell id="fIGAu9aoCWB4bhaub2GI-3" value="Управление регистрацией" style="rounded=0;whiteSpace=wrap;html=1;fontSize=16;" vertex="1" parent="1">
          <mxGeometry x="290" y="360" width="120" height="60" as="geometry" />
        </mxCell>
        <mxCell id="fIGAu9aoCWB4bhaub2GI-4" value="Добавление и получение товаров" style="rounded=0;whiteSpace=wrap;html=1;fontSize=16;" vertex="1" parent="1">
          <mxGeometry x="290" y="230" width="120" height="60" as="geometry" />
        </mxCell>
        <mxCell id="fIGAu9aoCWB4bhaub2GI-5" value="Управление доставкой" style="rounded=0;whiteSpace=wrap;html=1;fontSize=16;" vertex="1" parent="1">
          <mxGeometry x="450" y="230" width="120" height="60" as="geometry" />
        </mxCell>
        <mxCell id="fIGAu9aoCWB4bhaub2GI-6" value="Управление уведомлениями" style="rounded=0;whiteSpace=wrap;html=1;fontSize=16;" vertex="1" parent="1">
          <mxGeometry x="450" y="295" width="120" height="60" as="geometry" />
        </mxCell>
        <mxCell id="fIGAu9aoCWB4bhaub2GI-7" value="Управление рекламой" style="rounded=0;whiteSpace=wrap;html=1;fontSize=16;" vertex="1" parent="1">
          <mxGeometry x="450" y="360" width="120" height="60" as="geometry" />
        </mxCell>
        <mxCell id="fIGAu9aoCWB4bhaub2GI-8" value="Управление рассылкой сообщений" style="rounded=0;whiteSpace=wrap;html=1;fontSize=16;" vertex="1" parent="1">
          <mxGeometry x="310" y="430" width="120" height="60" as="geometry" />
        </mxCell>
        <mxCell id="fIGAu9aoCWB4bhaub2GI-9" value="Управление&amp;nbsp; предпочтениями" style="rounded=0;whiteSpace=wrap;html=1;fontSize=16;" vertex="1" parent="1">
          <mxGeometry x="293" y="150" width="120" height="60" as="geometry" />
        </mxCell>
        <mxCell id="fIGAu9aoCWB4bhaub2GI-10" value="управление платежами" style="rounded=0;whiteSpace=wrap;html=1;fontSize=16;" vertex="1" parent="1">
          <mxGeometry x="440" y="430" width="120" height="60" as="geometry" />
        </mxCell>
        <mxCell id="fIGAu9aoCWB4bhaub2GI-12" value="" style="shape=hexagon;perimeter=hexagonPerimeter2;whiteSpace=wrap;html=1;fixedSize=1;fillColor=none;size=150;fontSize=16;" vertex="1" parent="1">
          <mxGeometry x="20" width="960" height="820" as="geometry" />
        </mxCell>
        <mxCell id="fIGAu9aoCWB4bhaub2GI-11" value="Адаптер базы данных" style="rounded=0;whiteSpace=wrap;html=1;fontSize=16;" vertex="1" parent="1">
          <mxGeometry x="390" y="770" width="120" height="60" as="geometry" />
        </mxCell>
        <mxCell id="fIGAu9aoCWB4bhaub2GI-14" value="PostgreSQL" style="shape=cylinder3;whiteSpace=wrap;html=1;boundedLbl=1;backgroundOutline=1;size=15;fontSize=16;" vertex="1" parent="1">
          <mxGeometry x="300" y="890" width="240" height="160" as="geometry" />
        </mxCell>
        <mxCell id="fIGAu9aoCWB4bhaub2GI-15" value="File System" style="shape=cylinder3;whiteSpace=wrap;html=1;boundedLbl=1;backgroundOutline=1;size=15;fontSize=16;" vertex="1" parent="1">
          <mxGeometry x="620" y="910" width="110" height="150" as="geometry" />
        </mxCell>
        <mxCell id="fIGAu9aoCWB4bhaub2GI-16" value="" style="endArrow=classic;startArrow=classic;html=1;rounded=0;entryX=-0.018;entryY=0.393;entryDx=0;entryDy=0;entryPerimeter=0;fontSize=16;" edge="1" parent="1" source="fIGAu9aoCWB4bhaub2GI-14" target="fIGAu9aoCWB4bhaub2GI-15">
          <mxGeometry width="50" height="50" relative="1" as="geometry">
            <mxPoint x="580" y="880" as="sourcePoint" />
            <mxPoint x="600" y="840" as="targetPoint" />
          </mxGeometry>
        </mxCell>
        <mxCell id="fIGAu9aoCWB4bhaub2GI-17" value="" style="endArrow=classic;startArrow=classic;html=1;rounded=0;entryX=0.5;entryY=1;entryDx=0;entryDy=0;exitX=0.5;exitY=0;exitDx=0;exitDy=0;exitPerimeter=0;fontSize=16;" edge="1" parent="1" source="fIGAu9aoCWB4bhaub2GI-14" target="fIGAu9aoCWB4bhaub2GI-11">
          <mxGeometry width="50" height="50" relative="1" as="geometry">
            <mxPoint x="420" y="700" as="sourcePoint" />
            <mxPoint x="470" y="650" as="targetPoint" />
          </mxGeometry>
        </mxCell>
        <mxCell id="fIGAu9aoCWB4bhaub2GI-18" value="" style="endArrow=classic;startArrow=classic;html=1;rounded=0;entryX=0.75;entryY=1;entryDx=0;entryDy=0;exitX=0.5;exitY=0;exitDx=0;exitDy=0;exitPerimeter=0;fontSize=16;" edge="1" parent="1" source="fIGAu9aoCWB4bhaub2GI-15" target="fIGAu9aoCWB4bhaub2GI-11">
          <mxGeometry width="50" height="50" relative="1" as="geometry">
            <mxPoint x="410" y="670" as="sourcePoint" />
            <mxPoint x="460" y="620" as="targetPoint" />
          </mxGeometry>
        </mxCell>
        <mxCell id="fIGAu9aoCWB4bhaub2GI-19" value="" style="endArrow=classic;startArrow=classic;html=1;rounded=0;exitX=0.5;exitY=0;exitDx=0;exitDy=0;fontSize=16;" edge="1" parent="1" source="fIGAu9aoCWB4bhaub2GI-11">
          <mxGeometry width="50" height="50" relative="1" as="geometry">
            <mxPoint x="410" y="590" as="sourcePoint" />
            <mxPoint x="440" y="520" as="targetPoint" />
          </mxGeometry>
        </mxCell>
        <mxCell id="fIGAu9aoCWB4bhaub2GI-20" value="Администрирование" style="rounded=0;whiteSpace=wrap;html=1;fontSize=16;" vertex="1" parent="1">
          <mxGeometry x="440" y="140" width="160" height="80" as="geometry" />
        </mxCell>
        <mxCell id="fIGAu9aoCWB4bhaub2GI-21" value="Адаптер мобильного приложения" style="rounded=0;whiteSpace=wrap;html=1;fontSize=16;" vertex="1" parent="1">
          <mxGeometry x="30" y="200" width="120" height="60" as="geometry" />
        </mxCell>
        <mxCell id="fIGAu9aoCWB4bhaub2GI-22" value="адаптер десктопного приложения" style="rounded=0;whiteSpace=wrap;html=1;fontSize=16;" vertex="1" parent="1">
          <mxGeometry x="-40" y="320" width="120" height="60" as="geometry" />
        </mxCell>
        <mxCell id="fIGAu9aoCWB4bhaub2GI-23" value="Адаптер мобильного приложения" style="rounded=0;whiteSpace=wrap;html=1;fontSize=16;" vertex="1" parent="1">
          <mxGeometry x="-30" y="440" width="120" height="60" as="geometry" />
        </mxCell>
        <mxCell id="fIGAu9aoCWB4bhaub2GI-24" value="курьер" style="ellipse;whiteSpace=wrap;html=1;aspect=fixed;fontSize=16;" vertex="1" parent="1">
          <mxGeometry x="-130" y="190" width="80" height="80" as="geometry" />
        </mxCell>
        <mxCell id="fIGAu9aoCWB4bhaub2GI-25" value="клиент" style="ellipse;whiteSpace=wrap;html=1;aspect=fixed;fontSize=16;" vertex="1" parent="1">
          <mxGeometry x="-180" y="440" width="80" height="80" as="geometry" />
        </mxCell>
        <mxCell id="fIGAu9aoCWB4bhaub2GI-26" value="" style="endArrow=classic;startArrow=classic;html=1;rounded=0;entryX=0;entryY=0.5;entryDx=0;entryDy=0;exitX=1;exitY=0.5;exitDx=0;exitDy=0;fontSize=16;" edge="1" parent="1" source="fIGAu9aoCWB4bhaub2GI-24" target="fIGAu9aoCWB4bhaub2GI-21">
          <mxGeometry width="50" height="50" relative="1" as="geometry">
            <mxPoint x="10" y="270" as="sourcePoint" />
            <mxPoint x="60" y="220" as="targetPoint" />
          </mxGeometry>
        </mxCell>
        <mxCell id="fIGAu9aoCWB4bhaub2GI-28" value="" style="endArrow=classic;startArrow=classic;html=1;rounded=0;entryX=0;entryY=0.5;entryDx=0;entryDy=0;exitX=1;exitY=0.5;exitDx=0;exitDy=0;fontSize=16;" edge="1" parent="1" source="fIGAu9aoCWB4bhaub2GI-25" target="fIGAu9aoCWB4bhaub2GI-23">
          <mxGeometry width="50" height="50" relative="1" as="geometry">
            <mxPoint x="30" y="470" as="sourcePoint" />
            <mxPoint x="80" y="420" as="targetPoint" />
          </mxGeometry>
        </mxCell>
        <mxCell id="fIGAu9aoCWB4bhaub2GI-29" value="" style="endArrow=classic;startArrow=classic;html=1;rounded=0;entryX=1;entryY=0.5;entryDx=0;entryDy=0;fontSize=16;" edge="1" parent="1" source="fIGAu9aoCWB4bhaub2GI-1" target="fIGAu9aoCWB4bhaub2GI-23">
          <mxGeometry width="50" height="50" relative="1" as="geometry">
            <mxPoint x="-390" y="464.70588235294116" as="sourcePoint" />
            <mxPoint x="260" y="420" as="targetPoint" />
          </mxGeometry>
        </mxCell>
        <mxCell id="fIGAu9aoCWB4bhaub2GI-31" value="" style="endArrow=classic;startArrow=classic;html=1;rounded=0;entryX=0.115;entryY=0.235;entryDx=0;entryDy=0;entryPerimeter=0;exitX=1;exitY=0.5;exitDx=0;exitDy=0;fontSize=16;" edge="1" parent="1" source="fIGAu9aoCWB4bhaub2GI-21" target="fIGAu9aoCWB4bhaub2GI-1">
          <mxGeometry width="50" height="50" relative="1" as="geometry">
            <mxPoint x="220" y="270" as="sourcePoint" />
            <mxPoint x="270" y="220" as="targetPoint" />
          </mxGeometry>
        </mxCell>
        <mxCell id="fIGAu9aoCWB4bhaub2GI-32" value="" style="endArrow=classic;startArrow=classic;html=1;rounded=0;exitX=0.167;exitY=0.402;exitDx=0;exitDy=0;entryX=1;entryY=0.5;entryDx=0;entryDy=0;fontSize=16;exitPerimeter=0;" edge="1" parent="1" source="fIGAu9aoCWB4bhaub2GI-12" target="fIGAu9aoCWB4bhaub2GI-22">
          <mxGeometry width="50" height="50" relative="1" as="geometry">
            <mxPoint x="710" y="370" as="sourcePoint" />
            <mxPoint x="760" y="320" as="targetPoint" />
          </mxGeometry>
        </mxCell>
        <mxCell id="fIGAu9aoCWB4bhaub2GI-33" value="админ" style="ellipse;whiteSpace=wrap;html=1;aspect=fixed;fontSize=16;" vertex="1" parent="1">
          <mxGeometry x="-250" y="320" width="80" height="80" as="geometry" />
        </mxCell>
        <mxCell id="fIGAu9aoCWB4bhaub2GI-34" value="" style="endArrow=classic;startArrow=classic;html=1;rounded=0;entryX=1;entryY=0.5;entryDx=0;entryDy=0;fontSize=16;exitX=0;exitY=0.5;exitDx=0;exitDy=0;" edge="1" parent="1" source="fIGAu9aoCWB4bhaub2GI-22" target="fIGAu9aoCWB4bhaub2GI-33">
          <mxGeometry width="50" height="50" relative="1" as="geometry">
            <mxPoint x="-90" y="330" as="sourcePoint" />
            <mxPoint x="1060" y="350" as="targetPoint" />
          </mxGeometry>
        </mxCell>
        <mxCell id="fIGAu9aoCWB4bhaub2GI-45" style="edgeStyle=orthogonalEdgeStyle;rounded=0;orthogonalLoop=1;jettySize=auto;html=1;exitX=1;exitY=0.5;exitDx=0;exitDy=0;" edge="1" parent="1" source="fIGAu9aoCWB4bhaub2GI-35">
          <mxGeometry relative="1" as="geometry">
            <mxPoint x="1230" y="210" as="targetPoint" />
          </mxGeometry>
        </mxCell>
        <mxCell id="fIGAu9aoCWB4bhaub2GI-35" value="Адаптер API" style="rounded=0;whiteSpace=wrap;html=1;fontSize=16;" vertex="1" parent="1">
          <mxGeometry x="840" y="170" width="120" height="60" as="geometry" />
        </mxCell>
        <mxCell id="fIGAu9aoCWB4bhaub2GI-36" value="" style="endArrow=classic;startArrow=classic;html=1;rounded=0;entryX=0;entryY=0.5;entryDx=0;entryDy=0;exitX=0.886;exitY=0.215;exitDx=0;exitDy=0;exitPerimeter=0;fontSize=16;" edge="1" parent="1" source="fIGAu9aoCWB4bhaub2GI-1" target="fIGAu9aoCWB4bhaub2GI-35">
          <mxGeometry width="50" height="50" relative="1" as="geometry">
            <mxPoint x="780" y="240" as="sourcePoint" />
            <mxPoint x="830" y="190" as="targetPoint" />
          </mxGeometry>
        </mxCell>
        <mxCell id="fIGAu9aoCWB4bhaub2GI-39" value="&lt;font style=&quot;font-size: 17px;&quot;&gt;адаптер&lt;span style=&quot;white-space: pre;&quot;&gt;&#x9;&lt;/span&gt;API&lt;/font&gt;" style="whiteSpace=wrap;html=1;aspect=fixed;" vertex="1" parent="1">
          <mxGeometry x="810" y="610" width="140" height="140" as="geometry" />
        </mxCell>
        <mxCell id="fIGAu9aoCWB4bhaub2GI-44" style="edgeStyle=orthogonalEdgeStyle;rounded=0;orthogonalLoop=1;jettySize=auto;html=1;exitX=0;exitY=0.5;exitDx=0;exitDy=0;" edge="1" parent="1" source="fIGAu9aoCWB4bhaub2GI-40" target="fIGAu9aoCWB4bhaub2GI-39">
          <mxGeometry relative="1" as="geometry" />
        </mxCell>
        <mxCell id="fIGAu9aoCWB4bhaub2GI-40" value="Umoney" style="ellipse;whiteSpace=wrap;html=1;aspect=fixed;fontSize=16;" vertex="1" parent="1">
          <mxGeometry x="1060" y="600" width="230" height="230" as="geometry" />
        </mxCell>
        <mxCell id="fIGAu9aoCWB4bhaub2GI-41" value="" style="endArrow=classic;startArrow=classic;html=1;rounded=0;entryX=0;entryY=0.5;entryDx=0;entryDy=0;exitX=0.978;exitY=0.601;exitDx=0;exitDy=0;exitPerimeter=0;" edge="1" parent="1" source="fIGAu9aoCWB4bhaub2GI-1" target="fIGAu9aoCWB4bhaub2GI-39">
          <mxGeometry width="50" height="50" relative="1" as="geometry">
            <mxPoint x="1130" y="300" as="sourcePoint" />
            <mxPoint x="1020" y="650" as="targetPoint" />
          </mxGeometry>
        </mxCell>
        <mxCell id="fIGAu9aoCWB4bhaub2GI-46" value="VK&lt;br&gt;\" style="ellipse;whiteSpace=wrap;html=1;aspect=fixed;fontSize=17;" vertex="1" parent="1">
          <mxGeometry x="1230" y="125" width="210" height="210" as="geometry" />
        </mxCell>
      </root>
    </mxGraphModel>
  </diagram>
</mxfile>
